# xmcd CD database file
#
# Track frame offsets:
#	150
#	22192
#	43457
#	60774
#	81939
#	88809
#	105387
#	128755
#	144262
#	170738
#	197396
#	223833
#	243182
#
# Disc length: 3676 seconds
#
# Revision: 0
# Processed by: cddbd v1.5.1PL2 Copyright (c) Steve Scherf et al.
# Submitted via: CDex 1.60beta1
#
DISCID=b10e5a0d
DTITLE=quarta330 - DOT BUBBLES
DYEAR=2005
DGENRE=Electronic
TTITLE0=CHIP DUB EXPRESS
TTITLE1=CAPTAIN MORGAN
TTITLE2=LET'S DANCE
TTITLE3=POUNDER
TTITLE4=INT.1
TTITLE5=STARFRUITS
TTITLE6=TRIBEE
TTITLE7=INT.2
TTITLE8=VOODOO SMOOTHIE
TTITLE9=IVORY BASS
TTITLE10=GRAVITY
TTITLE11=LHIZZLE MY RIZZLE
TTITLE12=MEDITATION
EXTD=YEAR: 2005
EXTT0=
EXTT1=
EXTT2=
EXTT3=
EXTT4=
EXTT5=
EXTT6=
EXTT7=
EXTT8=
EXTT9=
EXTT10=
EXTT11=
EXTT12=
PLAYORDER=
